<svg version="1.1" id="Layer_1" xmlns="http://www.w3.org/2000/svg" xmlns:xlink="http://www.w3.org/1999/xlink" x="0px" y="0px"
	 width="100%" viewBox="0 0 896 512" enable-background="new 0 0 896 512" xml:space="preserve">
<path fill="#000000" opacity="1.000000" stroke="none" 
	d="
M504.782104,93.021362 
	C553.035889,106.670296 600.893982,120.230255 648.787415,133.664581 
	C653.648071,135.028015 657.431396,137.273209 660.498291,141.440903 
	C675.014160,161.167160 689.816223,180.682556 704.395142,200.362823 
	C709.794983,207.652100 707.832214,213.598541 699.271240,216.554260 
	C688.099243,220.411407 676.964294,224.404617 665.663086,227.845322 
	C660.862549,229.306854 659.223145,231.542389 659.255615,236.635880 
	C659.480103,271.798981 659.286011,306.964600 659.437134,342.128510 
	C659.462219,347.952515 657.272461,351.287537 651.869751,353.511414 
	C586.733093,380.323059 521.653687,407.273895 456.566956,434.206818 
	C452.836578,435.750458 449.207855,435.856110 445.434570,434.293823 
	C380.502960,407.409607 315.576599,380.512329 250.587036,353.768799 
	C244.813110,351.392792 242.528229,347.840271 242.560837,341.616821 
	C242.743301,306.785828 242.530731,271.952667 242.749329,237.122086 
	C242.782166,231.890823 241.153107,229.336121 236.143768,227.798843 
	C225.008499,224.381699 214.034882,220.435577 203.008347,216.667114 
	C194.164108,213.644516 192.174225,207.636398 197.702423,200.186371 
	C212.396027,180.384720 227.199417,160.664566 241.897415,140.866135 
	C244.500351,137.359940 247.787308,135.178848 251.978683,134.001053 
	C304.506744,119.240555 357.019562,104.425819 409.535431,89.621895 
	C421.542267,86.237244 433.559326,82.887680 445.542938,79.422668 
	C449.362610,78.318237 453.011749,78.460190 456.821411,79.548958 
	C472.657867,84.074875 488.534546,88.459976 504.782104,93.021362 
M442.067902,266.500000 
	C442.067902,252.808121 442.067902,239.116241 442.067902,225.424362 
	C440.043335,226.115585 439.249176,226.929245 438.533173,227.806717 
	C425.795715,243.416595 413.100830,259.061371 400.321289,274.636688 
	C395.260376,280.804779 393.265991,281.204163 385.579437,278.591278 
	C345.570892,264.991394 305.555603,251.411377 265.532898,237.853226 
	C264.026733,237.343002 262.503082,236.418365 260.480194,237.366379 
	C260.363434,238.885712 260.129303,240.518265 260.128601,242.150909 
	C260.115143,272.801392 260.203857,303.452271 260.049042,334.101929 
	C260.028320,338.203949 262.197357,339.479675 265.334137,340.773438 
	C318.884827,362.860291 372.401337,385.030121 425.954742,407.110443 
	C431.116577,409.238678 436.139679,411.824066 442.067932,413.226807 
	C442.067932,364.371460 442.067932,315.935730 442.067902,266.500000 
M470.147797,409.579254 
	C525.712952,386.611755 581.266113,363.615082 636.871277,340.744690 
	C640.448975,339.273254 641.983032,337.484283 641.960327,333.425537 
	C641.791748,303.260284 641.881531,273.093628 641.840637,242.927521 
	C641.838074,241.006714 642.326416,238.921417 640.918213,237.233566 
	C639.464478,236.683609 638.213501,237.270370 636.977234,237.690002 
	C624.843018,241.808578 612.722900,245.968857 600.588196,250.085800 
	C572.054871,259.766327 543.493164,269.364044 514.998840,279.157806 
	C509.606354,281.011200 505.608032,279.624847 502.177429,275.461761 
	C501.223541,274.304199 500.237427,273.173004 499.293121,272.007843 
	C487.437561,257.379089 475.600586,242.735245 463.706055,228.138275 
	C462.867188,227.108765 462.424011,225.317627 460.470093,225.615967 
	C460.470093,288.039734 460.470093,350.380157 460.470093,412.893616 
	C464.070129,412.476868 466.625885,410.794128 470.147797,409.579254 
M384.287354,170.988541 
	C404.808899,176.642395 425.342560,182.252869 445.840271,187.991882 
	C449.343658,188.972748 452.618622,188.948242 456.120697,187.978485 
	C507.239532,173.823273 558.380493,159.748062 609.508667,145.626556 
	C611.008484,145.212326 612.814514,145.227585 613.786438,143.342499 
	C612.162659,141.355148 609.770203,141.007339 607.593201,140.390091 
	C557.199280,126.102417 506.789581,111.870148 456.403259,97.555779 
	C452.758759,96.520401 449.336945,96.467941 445.679169,97.505447 
	C393.835907,112.210510 341.968964,126.832329 290.125732,141.537491 
	C288.882324,141.890182 287.189880,141.809250 286.140503,143.953827 
	C318.784637,152.948029 351.142914,161.863449 384.287354,170.988541 
M409.814575,235.340302 
	C418.228943,224.907669 426.643311,214.475037 435.364349,203.662201 
	C433.035492,202.874863 431.497955,202.268982 429.913849,201.831924 
	C372.860626,186.091064 315.795227,170.394165 258.765564,154.568527 
	C255.344513,153.619171 253.554718,154.821823 251.691910,157.339935 
	C242.679214,169.523117 233.519211,181.597427 224.521088,193.791275 
	C222.483826,196.552063 220.051208,199.121643 218.828125,202.626373 
	C220.496124,204.355103 222.669205,204.778885 224.664291,205.456879 
	C244.829544,212.309845 265.014984,219.103394 285.182556,225.949509 
	C317.324127,236.860336 349.498993,247.676346 381.551208,258.844055 
	C386.963837,260.729950 390.298553,260.192291 393.719452,255.353592 
	C398.515625,248.569519 404.117767,242.355270 409.814575,235.340302 
M517.615662,189.286041 
	C500.909576,193.904724 484.203522,198.523422 467.541016,203.130066 
	C468.170441,206.082870 469.539825,207.355164 470.675690,208.758102 
	C483.247833,224.286774 496.021118,239.658371 508.298737,255.416260 
	C511.915985,260.058838 515.140259,260.667328 520.502136,258.824768 
	C571.478394,241.307098 622.548218,224.061829 673.571106,206.679535 
	C676.818237,205.573334 680.288452,204.823715 683.115112,202.520142 
	C682.843689,200.429932 681.483276,199.098495 680.420837,197.676834 
	C670.653748,184.606903 660.704956,171.670151 651.108521,158.476868 
	C648.435303,154.801605 645.907410,153.857315 641.481873,155.095230 
	C600.494568,166.560196 559.447021,177.809586 517.615662,189.286041 
z"/>
</svg>