<svg version="1.1" id="Layer_1" xmlns="http://www.w3.org/2000/svg" xmlns:xlink="http://www.w3.org/1999/xlink" x="0px" y="0px"
	 width="100%" viewBox="0 0 512 512" enable-background="new 0 0 512 512" xml:space="preserve">
<path fill="#000000" opacity="1.000000" stroke="none" 
	d="
M301.000000,513.000000 
	C200.691025,513.000000 100.882042,513.000000 1.036533,513.000000 
	C1.036533,342.399323 1.036533,171.798660 1.036533,1.098988 
	C171.558990,1.098988 342.118042,1.098988 512.838562,1.098988 
	C512.838562,171.666550 512.838562,342.333252 512.838562,513.000000 
	C442.465302,513.000000 371.982635,513.000000 301.000000,513.000000 
M290.754486,225.332001 
	C283.917908,228.767242 277.188812,232.445526 270.199463,235.535187 
	C266.704468,237.080170 265.883087,239.106277 265.887939,242.723862 
	C265.996674,323.885559 265.970093,405.047424 265.980530,486.209259 
	C265.980713,487.788055 266.117645,489.366852 266.197723,491.095673 
	C267.066498,490.952881 267.592102,490.986176 267.999390,490.782623 
	C333.927856,457.836670 399.845642,424.869415 465.773987,391.923279 
	C469.280090,390.171173 470.900085,387.338531 470.991699,383.540863 
	C471.340057,369.098938 471.978973,354.655365 471.929016,340.214417 
	C471.836426,313.444763 471.157776,286.677246 471.047424,259.907501 
	C470.884613,220.410538 471.005432,180.912384 471.005432,141.414734 
	C471.005432,139.652863 471.005402,137.890991 471.005402,135.249191 
	C410.638733,165.424637 351.033966,195.219238 290.754486,225.332001 
M248.028412,306.500000 
	C248.028397,285.010712 247.946594,263.520813 248.113785,242.032852 
	C248.139801,238.690170 247.057709,237.146988 244.089081,235.668350 
	C178.614868,203.056747 113.204926,170.316147 47.779457,137.606674 
	C46.369370,136.901703 44.920952,136.273407 42.994839,135.379288 
	C42.994839,138.030563 42.994839,139.855728 42.994839,141.680878 
	C42.994839,176.498749 42.994541,211.316635 42.994911,246.134506 
	C42.995396,291.281128 43.017647,336.427765 42.965359,381.574341 
	C42.959942,386.250214 44.074562,389.825043 48.693230,392.144958 
	C95.604546,415.708130 142.423370,439.455475 189.338318,463.011383 
	C207.616547,472.188812 226.070450,481.016541 244.454910,489.981812 
	C245.443039,490.463684 246.529602,490.743622 248.028412,491.282196 
	C248.028412,429.710571 248.028412,368.605286 248.028412,306.500000 
M417.044952,141.587952 
	C431.442596,134.363556 445.840240,127.139153 460.501434,119.782509 
	C459.522675,119.127106 459.006866,118.694702 458.421234,118.401863 
	C393.541077,85.957878 328.646271,53.543194 263.790222,21.051153 
	C259.056335,18.679543 254.777313,18.755056 250.052536,21.144001 
	C220.993805,35.836697 191.857254,50.375450 162.756104,64.984360 
	C161.654892,65.537163 160.651215,66.284271 159.239532,67.167740 
	C160.575333,67.939026 161.395370,68.471527 162.264450,68.905914 
	C227.880203,101.702202 293.509247,134.471939 359.084259,167.349411 
	C361.674896,168.648300 363.545319,168.367737 365.948059,167.152344 
	C382.719971,158.668304 399.558472,150.316010 417.044952,141.587952 
M311.686951,194.201355 
	C321.420959,189.345749 331.154968,184.490158 341.390350,179.384460 
	C340.139435,178.604156 339.487457,178.122299 338.773773,177.762939 
	C272.999481,144.642990 207.229172,111.515144 141.388840,78.527000 
	C139.839951,77.750954 137.244614,77.970757 135.574768,78.711754 
	C126.812981,82.599838 118.114616,86.650330 109.538506,90.933319 
	C90.931076,100.226067 72.411186,109.694092 53.285686,119.378990 
	C55.036739,120.374130 56.124241,121.063690 57.271141,121.633728 
	C123.069710,154.337433 188.863312,187.051224 254.731796,219.613556 
	C256.426331,220.451279 259.282196,220.308304 261.029663,219.457916 
	C277.771759,211.310516 294.391632,202.911987 311.686951,194.201355 
z"/>
<path fill="#DAAC82" opacity="1.000000" stroke="none" 
	d="
M291.091858,225.172928 
	C351.033966,195.219238 410.638733,165.424637 471.005402,135.249191 
	C471.005402,137.890991 471.005432,139.652863 471.005432,141.414734 
	C471.005432,180.912384 470.884613,220.410538 471.047424,259.907501 
	C471.157776,286.677246 471.836426,313.444763 471.929016,340.214417 
	C471.978973,354.655365 471.340057,369.098938 470.991699,383.540863 
	C470.900085,387.338531 469.280090,390.171173 465.773987,391.923279 
	C399.845642,424.869415 333.927856,457.836670 267.999390,490.782623 
	C267.592102,490.986176 267.066498,490.952881 266.197723,491.095673 
	C266.117645,489.366852 265.980713,487.788055 265.980530,486.209259 
	C265.970093,405.047424 265.996674,323.885559 265.887939,242.723862 
	C265.883087,239.106277 266.704468,237.080170 270.199463,235.535187 
	C277.188812,232.445526 283.917908,228.767242 291.091858,225.172928 
z"/>
<path fill="#DAAC82" opacity="1.000000" stroke="none" 
	d="
M248.028412,307.000000 
	C248.028412,368.605286 248.028412,429.710571 248.028412,491.282196 
	C246.529602,490.743622 245.443039,490.463684 244.454910,489.981812 
	C226.070450,481.016541 207.616547,472.188812 189.338318,463.011383 
	C142.423370,439.455475 95.604546,415.708130 48.693230,392.144958 
	C44.074562,389.825043 42.959942,386.250214 42.965359,381.574341 
	C43.017647,336.427765 42.995396,291.281128 42.994911,246.134506 
	C42.994541,211.316635 42.994839,176.498749 42.994839,141.680878 
	C42.994839,139.855728 42.994839,138.030563 42.994839,135.379288 
	C44.920952,136.273407 46.369370,136.901703 47.779457,137.606674 
	C113.204926,170.316147 178.614868,203.056747 244.089081,235.668350 
	C247.057709,237.146988 248.139801,238.690170 248.113785,242.032852 
	C247.946594,263.520813 248.028397,285.010712 248.028412,307.000000 
z"/>
<path fill="#D9AB81" opacity="1.000000" stroke="none" 
	d="
M416.710327,141.754730 
	C399.558472,150.316010 382.719971,158.668304 365.948059,167.152344 
	C363.545319,168.367737 361.674896,168.648300 359.084259,167.349411 
	C293.509247,134.471939 227.880203,101.702202 162.264450,68.905914 
	C161.395370,68.471527 160.575333,67.939026 159.239532,67.167740 
	C160.651215,66.284271 161.654892,65.537163 162.756104,64.984360 
	C191.857254,50.375450 220.993805,35.836697 250.052536,21.144001 
	C254.777313,18.755056 259.056335,18.679543 263.790222,21.051153 
	C328.646271,53.543194 393.541077,85.957878 458.421234,118.401863 
	C459.006866,118.694702 459.522675,119.127106 460.501434,119.782509 
	C445.840240,127.139153 431.442596,134.363556 416.710327,141.754730 
z"/>
<path fill="#D9AB82" opacity="1.000000" stroke="none" 
	d="
M311.366760,194.393417 
	C294.391632,202.911987 277.771759,211.310516 261.029663,219.457916 
	C259.282196,220.308304 256.426331,220.451279 254.731796,219.613556 
	C188.863312,187.051224 123.069710,154.337433 57.271141,121.633728 
	C56.124241,121.063690 55.036739,120.374130 53.285686,119.378990 
	C72.411186,109.694092 90.931076,100.226067 109.538506,90.933319 
	C118.114616,86.650330 126.812981,82.599838 135.574768,78.711754 
	C137.244614,77.970757 139.839951,77.750954 141.388840,78.527000 
	C207.229172,111.515144 272.999481,144.642990 338.773773,177.762939 
	C339.487457,178.122299 340.139435,178.604156 341.390350,179.384460 
	C331.154968,184.490158 321.420959,189.345749 311.366760,194.393417 
z"/>
</svg>